<svg id="clock" xmlns="http://www.w3.org/2000/svg" width="9.119" height="9.119" viewBox="0 0 9.119 9.119">
  <path id="Path_11" data-name="Path 11" d="M8.16,2.4a.38.38,0,0,0-.177.507A3.761,3.761,0,0,1,8.359,4.56,3.8,3.8,0,1,1,4.56.76a3.754,3.754,0,0,1,2.359.82A.38.38,0,1,0,7.391.985,4.56,4.56,0,1,0,9.119,4.56a4.513,4.513,0,0,0-.452-1.984A.38.38,0,0,0,8.16,2.4Zm0,0" transform="translate(0 0)" fill="#fff"/>
  <path id="Path_12" data-name="Path 12" d="M176.38,64a.38.38,0,0,0-.38.38v2.66a.38.38,0,0,0,.38.38h1.9a.38.38,0,0,0,0-.76h-1.52V64.38A.38.38,0,0,0,176.38,64Zm0,0" transform="translate(-171.82 -62.48)" fill="#fff"/>
</svg>
